<svg xmlns="http://www.w3.org/2000/svg" version="1.1" xmlns:xlink="http://www.w3.org/1999/xlink" width="100%" height="100%"><svg xmlns="http://www.w3.org/2000/svg" version="1.1" xmlns:xlink="http://www.w3.org/1999/xlink" width="100%" height="100%"><svg width="100%" height="100%" viewBox="0 0 512 512" version="1.1" xmlns="http://www.w3.org/2000/svg" xmlns:xlink="http://www.w3.org/1999/xlink" xml:space="preserve" xmlns:serif="http://www.serif.com/" style="fill-rule:evenodd;clip-rule:evenodd;stroke-linejoin:round;stroke-miterlimit:2;">
    <g transform="matrix(1,0,0,1,-6824.91937,-730.370728)">
        <g id="favicon" transform="matrix(0.88935,0,0,0.948055,784.860329,42.881161)">
            <rect x="6791.54" y="725.158" width="575.694" height="540.053" style="fill:none;"></rect>
            <g transform="matrix(1.494212,-0.809265,1.196911,1.944742,5486.445675,-386.310757)">
                <path d="M517,810.082L517,920.918C517,930.898 506.243,939 492.994,939L252.569,939C239.319,939 228.562,930.898 228.562,920.918L228.562,810.082C228.562,800.102 239.319,792 252.569,792L492.994,792C506.243,792 517,800.102 517,810.082ZM397.847,878.593L385.197,910.234L411.72,921.768L474.25,872.356L448.478,861.149L414.499,892.597L428.426,852.429L412.593,845.543L373.373,874.713L392.542,836.824L366.769,825.616L341.107,891.06L367.746,902.645L397.847,878.593ZM328.897,861.957L359.257,822.349L336.836,812.599L309.246,848.594C307.778,850.509 306.3,851.734 304.813,852.267C303.325,852.8 301.944,852.944 300.668,852.699C299.392,852.453 298.292,852.13 297.367,851.727C296.481,851.342 295.683,850.792 294.973,850.077C294.262,849.362 293.69,848.6 293.257,847.793C292.823,846.985 292.533,846.24 292.388,845.558L273.171,856.758C273.289,857.274 273.893,858.262 274.982,859.722C276.072,861.182 277.726,862.811 279.944,864.607C282.163,866.404 284.986,868.048 288.415,869.539C293.5,871.75 298.565,872.966 303.609,873.187C308.654,873.407 313.362,872.592 317.735,870.74C322.107,868.889 325.828,865.961 328.897,861.957Z" style="fill:rgb(37,210,241);"></path>
            </g>
        </g>
    </g>
</svg></svg><style>@media (prefers-color-scheme: light) { :root { filter: none; } }
@media (prefers-color-scheme: dark) { :root { filter: none; } }
</style></svg>